<?xml version="1.0" standalone="no"?>
<!DOCTYPE svg PUBLIC "-//W3C//DTD SVG 20010904//EN"
 "http://www.w3.org/TR/2001/REC-SVG-20010904/DTD/svg10.dtd">
<svg version="1.0" xmlns="http://www.w3.org/2000/svg"
 width="1071.000000pt" height="450.000000pt" viewBox="0 0 1071.000000 450.000000"
 preserveAspectRatio="xMidYMid meet">

<g transform="translate(0.000000,450.000000) scale(0.100000,-0.100000)"
fill="#000000" stroke="none">
<path d="M2957 4468 c-62 -83 -100 -198 -101 -307 l-1 -74 -41 -14 c-60 -20
-105 -71 -111 -127 -7 -57 9 -97 54 -136 24 -22 44 -30 71 -30 73 0 78 -25 22
-113 -23 -36 -43 -54 -83 -72 -63 -30 -115 -31 -188 -6 -69 23 -189 78 -189
85 0 3 12 27 27 54 33 59 27 111 -18 153 -57 53 -133 48 -184 -13 -54 -64 -38
-139 40 -186 38 -23 44 -32 45 -59 0 -49 -36 -136 -72 -170 -63 -60 -125 -56
-218 14 -88 66 -94 77 -71 139 23 59 13 94 -38 137 -28 23 -42 27 -97 27 -47
0 -81 7 -125 25 -59 25 -99 26 -99 2 1 -7 14 -30 30 -52 140 -191 250 -384
366 -637 l49 -108 960 0 961 0 94 197 c128 267 228 432 350 580 34 41 -20 52
-98 19 -45 -19 -79 -26 -128 -26 -64 0 -68 -2 -105 -39 -44 -43 -49 -74 -24
-135 19 -46 11 -63 -58 -118 -131 -104 -214 -90 -278 47 -42 88 -39 112 18
155 53 39 80 92 68 137 -11 44 -79 103 -120 103 -48 0 -82 -18 -107 -58 -28
-46 -28 -103 0 -141 12 -17 22 -35 22 -41 0 -14 -134 -75 -210 -97 -104 -28
-198 5 -254 91 -52 80 -46 106 27 106 30 0 46 8 79 39 38 35 42 43 45 97 5 79
-18 117 -92 149 -62 28 -62 28 -68 155 -3 68 -9 96 -31 140 -37 72 -79 140
-88 140 -4 0 -18 -15 -31 -32z"/>
<path d="M2920 2910 c0 -6 32 -10 77 -10 42 0 74 2 72 4 -11 9 -149 15 -149 6z"/>
<path d="M1703 2872 c-23 -3 -23 -5 -23 -170 l0 -167 142 0 143 0 2 -910 c2
-500 3 -983 3 -1072 l0 -163 165 0 c125 0 165 3 165 13 0 6 0 394 0 860 0 572
4 846 11 842 5 -4 55 -97 111 -208 55 -111 210 -417 344 -679 134 -262 244
-479 244 -482 0 -3 -27 -6 -60 -6 l-60 0 0 -171 0 -170 608 4 c660 4 641 2
777 62 357 159 528 606 361 945 -60 121 -169 240 -264 289 -22 12 -21 13 38
58 151 113 231 292 217 487 -21 293 -221 536 -505 615 -77 21 -163 23 -969 22
l-263 -1 0 -165 c0 -125 3 -165 13 -166 6 0 71 -1 142 -2 l130 -2 3 -677 c1
-373 -1 -678 -5 -678 -5 0 -123 226 -263 503 -480 945 -590 1160 -601 1173 -9
10 -74 14 -297 16 -158 2 -297 2 -309 0z m2292 -341 c122 -18 214 -84 264
-190 23 -50 26 -68 26 -161 0 -86 -4 -114 -22 -152 -30 -66 -96 -133 -162
-165 l-56 -28 -262 -3 -263 -3 0 349 c0 192 3 352 7 355 9 10 398 8 468 -2z
m73 -1031 c117 -27 222 -114 263 -217 19 -48 23 -77 24 -168 0 -98 -3 -116
-26 -165 -45 -96 -107 -155 -202 -193 -47 -19 -77 -21 -329 -25 l-278 -3 0
384 c0 211 3 387 7 390 10 11 493 8 541 -3z"/>
<path d="M4660 1690 c0 -40 3 -70 7 -67 7 7 5 129 -3 136 -2 2 -4 -29 -4 -69z"/>
<path d="M1577 784 c6 -16 19 -18 27 -5 3 5 -3 11 -13 14 -14 3 -18 1 -14 -9z"/>
<path d="M2190 156 c0 -3 9 -10 20 -16 11 -6 20 -8 20 -6 0 3 -9 10 -20 16
-11 6 -20 8 -20 6z"/>
<path d="M2465 20 c27 -12 43 -12 25 0 -8 5 -22 9 -30 9 -10 0 -8 -3 5 -9z"/>
</g>
</svg>
